<svg width="80" height="142" viewBox="0 0 80 142" fill="none" xmlns="http://www.w3.org/2000/svg">
<path d="M40 142C40 142 -12.0226 87.3171 2.58776 52.2787C17.1981 17.2404 62.8018 17.2404 77.4122 52.2787C92.0226 87.3171 40 142 40 142Z" fill="#DD4C4C"/>
<circle cx="40" cy="65" r="30" fill="white"/>
<path d="M29.3535 50.7143C23.6856 54.5184 20.7433 56.5429 20.5497 56.7633C19.7987 57.6286 19.8374 59.1551 20.6272 59.9633C20.782 60.1184 24.1038 62.3878 27.9985 65C32.1332 67.7673 35.1916 69.8735 35.3465 70.0449C36.1518 70.9755 36.1285 72.502 35.2923 73.351C35.1374 73.5061 31.8157 75.7755 27.921 78.3878C24.0263 81 20.7433 83.2286 20.6349 83.3347C20.3639 83.6122 20.0852 84.2163 20.0387 84.6408L20 85H31.0259H42.0519L50.5614 79.2857C55.2458 76.151 59.1715 73.4735 59.2954 73.351C59.427 73.2286 59.6206 72.9347 59.729 72.7143C59.8993 72.3714 59.9381 72.2 59.9381 71.6531C59.9381 71.1061 59.8993 70.9347 59.729 70.5918C59.6206 70.3633 59.427 70.0857 59.3031 69.9633C59.187 69.849 55.8962 67.6122 52.0015 64.9918C48.1069 62.3796 44.8238 60.151 44.7154 60.0449C44.5993 59.9388 44.4057 59.6531 44.2896 59.4245C44.0883 59.049 44.065 58.9184 44.065 58.3061C44.065 57.6939 44.0883 57.5633 44.2896 57.1878C44.4057 56.9592 44.5993 56.6735 44.7154 56.5673C44.8238 56.4612 48.0914 54.249 51.9628 51.6531C55.842 49.0571 59.125 46.8204 59.2644 46.6816C59.5819 46.3714 59.8761 45.7837 59.9458 45.3347L60 45H48.9353H37.8707L29.3535 50.7143Z" fill="#DD4C4C"/>
<path d="M31.8295 5.45455C31.7784 5.02273 31.571 4.6875 31.2074 4.44886C30.8438 4.21023 30.3977 4.09091 29.8693 4.09091C29.483 4.09091 29.1449 4.15341 28.8551 4.27841C28.5682 4.40341 28.3438 4.57528 28.1818 4.79403C28.0227 5.01278 27.9432 5.26136 27.9432 5.53977C27.9432 5.77273 27.9986 5.97301 28.1094 6.14062C28.223 6.3054 28.3679 6.44318 28.544 6.55398C28.7202 6.66193 28.9048 6.75142 29.098 6.82244C29.2912 6.89062 29.4688 6.94602 29.6307 6.98864L30.517 7.22727C30.7443 7.28693 30.9972 7.36932 31.2756 7.47443C31.5568 7.57955 31.8253 7.72301 32.081 7.90483C32.3395 8.08381 32.5526 8.31392 32.7202 8.59517C32.8878 8.87642 32.9716 9.22159 32.9716 9.63068C32.9716 10.1023 32.848 10.5284 32.6009 10.9091C32.3565 11.2898 31.9986 11.5923 31.527 11.8168C31.0582 12.0412 30.4886 12.1534 29.8182 12.1534C29.1932 12.1534 28.652 12.0526 28.1946 11.8509C27.7401 11.6491 27.3821 11.3679 27.1207 11.0071C26.8622 10.6463 26.7159 10.2273 26.6818 9.75H27.7727C27.8011 10.0795 27.9119 10.3523 28.1051 10.5682C28.3011 10.7812 28.5483 10.9403 28.8466 11.0455C29.1477 11.1477 29.4716 11.1989 29.8182 11.1989C30.2216 11.1989 30.5838 11.1335 30.9048 11.0028C31.2259 10.8693 31.4801 10.6847 31.6676 10.4489C31.8551 10.2102 31.9489 9.93182 31.9489 9.61364C31.9489 9.32386 31.8679 9.08807 31.706 8.90625C31.544 8.72443 31.331 8.5767 31.0668 8.46307C30.8026 8.34943 30.517 8.25 30.2102 8.16477L29.1364 7.85795C28.4545 7.66193 27.9148 7.3821 27.517 7.01847C27.1193 6.65483 26.9205 6.17898 26.9205 5.59091C26.9205 5.10227 27.0526 4.67614 27.3168 4.3125C27.5838 3.94602 27.9418 3.66193 28.3906 3.46023C28.8423 3.25568 29.3466 3.15341 29.9034 3.15341C30.4659 3.15341 30.9659 3.25426 31.4034 3.45597C31.8409 3.65483 32.1875 3.92756 32.4432 4.27415C32.7017 4.62074 32.8381 5.0142 32.8523 5.45455H31.8295ZM34.5728 12V5.45455H35.5785V12H34.5728ZM35.0842 4.36364C34.8881 4.36364 34.7191 4.29688 34.5771 4.16335C34.4379 4.02983 34.3683 3.86932 34.3683 3.68182C34.3683 3.49432 34.4379 3.33381 34.5771 3.20028C34.7191 3.06676 34.8881 3 35.0842 3C35.2802 3 35.4478 3.06676 35.587 3.20028C35.729 3.33381 35.8001 3.49432 35.8001 3.68182C35.8001 3.86932 35.729 4.02983 35.587 4.16335C35.4478 4.29688 35.2802 4.36364 35.0842 4.36364ZM38.4261 8.0625V12H37.4205V5.45455H38.392V6.47727H38.4773C38.6307 6.14489 38.8636 5.87784 39.1761 5.67614C39.4886 5.47159 39.892 5.36932 40.3864 5.36932C40.8295 5.36932 41.2173 5.46023 41.5497 5.64205C41.8821 5.82102 42.1406 6.09375 42.3253 6.46023C42.5099 6.82386 42.6023 7.28409 42.6023 7.84091V12H41.5966V7.90909C41.5966 7.39489 41.4631 6.99432 41.196 6.70739C40.929 6.41761 40.5625 6.27273 40.0966 6.27273C39.7756 6.27273 39.4886 6.34233 39.2358 6.48153C38.9858 6.62074 38.7884 6.82386 38.6435 7.09091C38.4986 7.35795 38.4261 7.68182 38.4261 8.0625ZM47.1843 12.1364C46.5536 12.1364 46.0096 11.9972 45.5522 11.7188C45.0977 11.4375 44.7468 11.0455 44.4996 10.5426C44.2553 10.0369 44.1332 9.44886 44.1332 8.77841C44.1332 8.10795 44.2553 7.51705 44.4996 7.00568C44.7468 6.49148 45.0906 6.09091 45.5309 5.80398C45.9741 5.5142 46.4911 5.36932 47.082 5.36932C47.4229 5.36932 47.7596 5.42614 48.092 5.53977C48.4244 5.65341 48.7269 5.83807 48.9996 6.09375C49.2724 6.34659 49.4897 6.68182 49.6516 7.09943C49.8136 7.51705 49.8945 8.03125 49.8945 8.64205V9.06818H44.8491V8.19886H48.8718C48.8718 7.82955 48.7979 7.5 48.6502 7.21023C48.5053 6.92045 48.2979 6.69176 48.0281 6.52415C47.761 6.35653 47.4457 6.27273 47.082 6.27273C46.6815 6.27273 46.3349 6.37216 46.0423 6.57102C45.7525 6.76705 45.5295 7.02273 45.3732 7.33807C45.217 7.65341 45.1388 7.99148 45.1388 8.35227V8.93182C45.1388 9.42614 45.2241 9.84517 45.3945 10.1889C45.5678 10.5298 45.8079 10.7898 46.1147 10.9688C46.4215 11.1449 46.7781 11.233 47.1843 11.233C47.4485 11.233 47.6871 11.196 47.9002 11.1222C48.1161 11.0455 48.3022 10.9318 48.4585 10.7812C48.6147 10.6278 48.7354 10.4375 48.8207 10.2102L49.7923 10.483C49.69 10.8125 49.5181 11.1023 49.2766 11.3523C49.0352 11.5994 48.7369 11.7926 48.3817 11.9318C48.0266 12.0682 47.6275 12.1364 47.1843 12.1364Z" fill="black"/>
</svg>
