<?xml version="1.0" ?><svg viewBox="0 0 512 512" xmlns="http://www.w3.org/2000/svg"><g id="Dam"><path d="M66,362.2643c12.4609,0,18.2617,4.3995,25.6055,9.9707,8.247,6.25,18.5058,14.0332,37.6953,14.0332,19.1943,0,29.4531-7.7832,37.7-14.0332,7.3486-5.5712,13.1543-9.9707,25.62-9.9707,12.456,0,18.2568,4.3995,25.5957,9.9707,8.2422,6.25,18.501,14.0332,37.6855,14.0332,19.1993,0,29.4629-7.7832,37.71-14.0332,7.3486-5.5712,13.1543-9.9707,25.625-9.9707,12.49,0,18.3008,4.3995,25.6592,9.9756,8.2519,6.25,18.52,14.0283,37.7246,14.0283s29.4727-7.7783,37.7295-14.0283c7.3535-5.5761,13.164-9.9756,25.6494-9.9756a10,10,0,0,0,0-20c-19.2041,0-29.4727,7.7784-37.7295,14.0284-7.3535,5.5761-13.1641,9.9755-25.6494,9.9755s-18.2959-4.3994-25.6494-9.9707c-8.2569-6.2548-18.5254-14.0332-37.7344-14.0332-19.1943,0-29.458,7.7784-37.7051,14.0332-7.3486,5.5713-13.1543,9.9707-25.63,9.9707-12.456,0-18.2568-4.3994-25.5957-9.9707-8.2421-6.25-18.5009-14.0332-37.6855-14.0332-19.1943,0-29.4531,7.7832-37.7,14.0332-7.3486,5.5713-13.1543,9.9707-25.62,9.9707-12.461,0-18.2617-4.3994-25.6055-9.9707C95.4482,350.0475,85.19,342.2643,66,342.2643a10,10,0,0,0,0,20Z"/><path d="M446,387.5329c-19.2041,0-29.4727,7.7783-37.7246,14.0283-7.3584,5.5713-13.169,9.9707-25.6543,9.9707s-18.2959-4.3994-25.6543-9.9707c-8.252-6.25-18.52-14.0283-37.7295-14.0283-19.1943,0-29.458,7.7783-37.7051,14.0283-7.3486,5.5713-13.1543,9.9707-25.63,9.9707-12.456,0-18.2568-4.3994-25.5957-9.9658-8.2421-6.2549-18.5009-14.0332-37.6855-14.0332-19.19,0-29.4531,7.7783-37.7,14.0283-7.3486,5.5713-13.1494,9.9707-25.62,9.9707-12.461,0-18.2617-4.3994-25.61-9.9658C95.4482,395.3112,85.19,387.5329,66,387.5329a10,10,0,0,0,0,20c12.4609,0,18.2617,4.3994,25.61,9.9658,8.2421,6.2549,18.5009,14.0332,37.69,14.0332s29.4531-7.7783,37.7-14.0283c7.3486-5.5713,13.1494-9.9707,25.62-9.9707,12.456,0,18.2568,4.3994,25.5957,9.9658,8.2422,6.2549,18.501,14.0332,37.6855,14.0332,19.1944,0,29.4629-7.7783,37.71-14.0283,7.3486-5.5713,13.1543-9.9707,25.625-9.9707,12.49,0,18.3008,4.3994,25.6592,9.9707,8.2519,6.25,18.52,14.0283,37.7246,14.0283s29.4727-7.7783,37.7246-14.0283c7.3584-5.5713,13.1689-9.9707,25.6543-9.9707a10,10,0,0,0,0-20Z"/><path d="M396.1855,340.3552c7.9957-6.0517,20.8289-15.661,41.919-17.663V80.4681H408.1417L384.7036,346.1334C388.73,345.8337,390.6527,344.5489,396.1855,340.3552Z"/><path d="M119.0939,210.426a43.7929,43.7929,0,0,1,17.8-31.5v-.1a43.8133,43.8133,0,0,1,25.9-8.4h54.8L204.1329,323.1487a73.09,73.09,0,0,1,31.5131,12.3291L246.6848,210.426a43.7933,43.7933,0,0,1,17.8-31.5v-.1a43.8134,43.8134,0,0,1,25.9-8.4h54.8L331.7117,323.2836a75.159,75.159,0,0,1,33.6664,14.3317L388.0648,80.4681H98.1045L76.7037,323.0132a72.96,72.96,0,0,1,31.4038,11.8659Zm149.6905-80h80l-1.8,20.0024h-56.6a63.6848,63.6848,0,0,0-23.8007,4.7638Zm-127.5909,0h80l-1.8,20.0024h-56.6a63.6847,63.6847,0,0,0-23.8006,4.7638Z"/></g></svg>