<?xml version="1.0" standalone="no"?>
<!DOCTYPE svg PUBLIC "-//W3C//DTD SVG 20010904//EN"
 "http://www.w3.org/TR/2001/REC-SVG-20010904/DTD/svg10.dtd">
<svg version="1.0" xmlns="http://www.w3.org/2000/svg"
 width="300.000000pt" height="300.000000pt" viewBox="0 0 300.000000 300.000000"
 preserveAspectRatio="xMidYMid meet">

<g transform="translate(0.000000,300.000000) scale(0.100000,-0.100000)"
fill="#000000" stroke="none">
<path d="M1428 2923 c7 -3 16 -2 19 1 4 3 -2 6 -13 5 -11 0 -14 -3 -6 -6z"/>
<path d="M1558 2923 c7 -3 16 -2 19 1 4 3 -2 6 -13 5 -11 0 -14 -3 -6 -6z"/>
<path d="M595 2599 c-167 -127 -310 -308 -404 -510 -241 -522 -141 -1155 249
-1572 60 -65 207 -187 224 -187 3 0 6 12 6 28 -1 20 -16 40 -63 82 -245 217
-412 521 -462 845 -33 210 -6 481 68 676 82 217 211 408 379 563 67 62 79 77
76 100 l-3 28 -70 -53z"/>
<path d="M1264 2303 c-4 -25 -4 -102 -2 -172 8 -179 47 -280 158 -403 78 -88
83 -83 78 70 -4 94 -10 143 -26 187 -11 33 -19 61 -17 63 6 7 52 -91 65 -136
6 -24 14 -87 18 -140 l7 -97 28 42 c103 152 64 417 -81 544 -44 39 -123 75
-179 82 l-42 5 -7 -45z"/>
<path d="M1850 1921 c-115 -35 -229 -162 -230 -255 0 -29 0 -29 58 26 52 50
138 105 148 96 2 -2 -23 -23 -54 -46 -58 -42 -140 -137 -128 -149 13 -13 148
16 211 46 70 32 159 110 213 184 30 42 30 45 14 60 -45 41 -160 60 -232 38z"/>
<path d="M935 1902 c-69 -33 -71 -41 -22 -109 97 -130 243 -213 379 -213 36 0
38 1 27 21 -13 26 -100 114 -149 152 l-35 28 50 -25 c28 -13 77 -48 109 -77
l59 -53 -7 39 c-11 55 -53 130 -95 167 -86 76 -234 109 -316 70z"/>
<path d="M2931 1584 c0 -11 3 -14 6 -6 3 7 2 16 -1 19 -3 4 -6 -2 -5 -13z"/>
<path d="M1505 1560 c-13 -15 -31 -20 -66 -20 -56 0 -177 -44 -249 -90 -95
-61 -223 -231 -207 -274 9 -22 57 -7 102 31 63 54 94 59 253 39 175 -21 205
-21 299 5 108 30 226 24 302 -15 l54 -28 -23 39 c-87 144 -206 239 -345 274
-38 10 -46 15 -42 30 5 18 4 18 -23 -1 -37 -26 -43 -25 -38 5 6 30 6 30 -17 5z"/>
<path d="M2931 1394 c0 -11 3 -14 6 -6 3 7 2 16 -1 19 -3 4 -6 -2 -5 -13z"/>
<path d="M1695 1215 c-137 -40 -178 -42 -381 -15 -83 11 -109 11 -148 0 -26
-7 -46 -19 -46 -26 0 -8 30 -30 68 -49 l67 -36 -75 6 c-42 3 -145 16 -230 30
-240 38 -285 40 -350 13 -45 -19 -56 -28 -58 -49 -4 -33 0 -35 318 -129 135
-39 265 -80 290 -90 92 -37 129 -42 370 -49 241 -6 246 -7 301 -34 36 -17 79
-51 117 -92 l60 -65 231 0 c127 0 231 4 231 8 0 4 -16 24 -36 43 -20 18 -89
97 -154 175 -248 295 -422 403 -575 359z"/>
</g>
</svg>
