<?xml version="1.0" standalone="no"?>
<!DOCTYPE svg PUBLIC "-//W3C//DTD SVG 20010904//EN"
 "http://www.w3.org/TR/2001/REC-SVG-20010904/DTD/svg10.dtd">
<svg version="1.0" xmlns="http://www.w3.org/2000/svg"
 width="512.000000pt" height="512.000000pt" viewBox="0 0 512.000000 512.000000"
 preserveAspectRatio="xMidYMid meet">

<g transform="translate(0.000000,512.000000) scale(0.100000,-0.100000)"
fill="#000000" stroke="none">
<path d="M3362 5104 c-483 -81 -883 -505 -930 -986 -10 -97 -2 -256 18 -343
58 -265 201 -484 433 -664 145 -112 210 -186 300 -343 26 -45 27 -52 27 -198
l0 -152 29 -29 29 -29 266 0 266 0 32 29 33 29 4 163 3 162 40 66 c85 139 143
201 289 314 314 241 472 600 437 991 -56 632 -652 1095 -1276 990z m387 -215
c169 -39 324 -131 452 -267 221 -236 297 -580 197 -892 -61 -189 -170 -333
-368 -486 -121 -93 -217 -203 -294 -336 l-28 -48 -173 0 -173 0 -28 48 c-78
136 -174 245 -299 342 -225 174 -346 355 -391 588 -18 93 -18 258 0 342 47
220 194 440 381 570 223 153 463 200 724 139z m-89 -2279 l0 -50 -125 0 -125
0 0 50 0 50 125 0 125 0 0 -50z"/>
<path d="M3420 4713 c-52 -9 -128 -37 -205 -76 -62 -32 -101 -62 -176 -137
-81 -81 -102 -109 -142 -190 -51 -105 -84 -242 -73 -303 9 -47 56 -87 103 -87
46 0 89 43 98 96 24 156 65 249 147 333 99 100 203 152 333 166 90 10 128 41
128 105 0 36 -6 48 -32 72 -28 25 -38 28 -94 27 -34 -1 -73 -4 -87 -6z"/>
<path d="M3273 3720 c-26 -10 -53 -58 -53 -93 0 -26 6 -36 142 -230 50 -70
101 -136 115 -147 33 -26 83 -26 116 0 30 24 236 312 250 350 22 58 -17 118
-80 127 -58 8 -79 -8 -158 -122 -37 -52 -68 -95 -69 -95 -2 0 -33 43 -70 95
-37 52 -77 102 -89 110 -24 16 -70 19 -104 5z"/>
<path d="M1165 4099 c-345 -50 -616 -234 -746 -504 -73 -152 -82 -203 -87
-529 -4 -326 -1 -352 58 -419 32 -36 39 -53 45 -102 22 -207 56 -377 96 -478
36 -90 129 -217 248 -337 l114 -114 -12 -90 c-12 -90 -37 -164 -68 -198 -15
-16 -39 -18 -272 -18 -176 0 -273 -4 -312 -13 -67 -16 -136 -62 -173 -115 -55
-80 -56 -93 -56 -623 l0 -489 29 -32 29 -33 2269 -3 c1691 -2 2275 1 2296 9
37 16 57 46 57 87 0 44 -14 68 -50 87 -24 13 -86 15 -380 15 l-350 0 0 400 0
400 76 0 c73 0 77 1 110 34 37 37 43 70 20 114 -11 21 -420 685 -486 789 -28
43 -88 58 -134 33 -18 -9 -295 -443 -502 -787 -44 -73 -44 -105 0 -149 33 -33
37 -34 110 -34 l76 0 0 -400 0 -400 -205 0 -204 0 -3 443 c-3 428 -4 443 -24
488 -28 60 -87 119 -150 150 -48 23 -56 24 -334 27 -241 3 -288 6 -302 19 -27
24 -56 114 -68 209 l-11 87 53 46 c106 91 215 222 276 331 50 89 85 242 113
494 10 97 12 101 53 147 66 73 69 93 64 435 -5 289 -6 302 -31 387 -108 354
-394 578 -812 636 -89 13 -333 12 -420 0z m505 -219 c47 -12 132 -44 188 -71
139 -67 239 -163 301 -289 55 -112 70 -200 71 -411 l0 -166 -87 -40 c-161 -74
-211 -85 -383 -84 -218 1 -389 48 -513 140 -84 61 -130 128 -178 255 -24 66
-58 96 -108 96 -51 -1 -72 -22 -126 -128 -54 -106 -153 -220 -248 -284 l-59
-40 5 233 c5 257 14 314 68 422 65 132 161 223 314 297 91 44 215 82 305 94
19 2 109 3 200 1 128 -3 184 -8 250 -25z m-611 -1021 c163 -162 398 -242 716
-243 122 0 166 4 235 21 47 12 92 24 101 28 14 5 14 -7 2 -122 -15 -152 -39
-298 -60 -371 -29 -104 -148 -252 -333 -414 l-53 -47 6 -114 c8 -133 35 -249
78 -331 30 -57 30 -60 12 -73 -83 -60 -261 -203 -316 -254 l-68 -62 -47 45
c-68 65 -256 217 -350 284 -2 1 10 26 27 56 42 75 71 192 78 320 7 127 -1 153
-61 196 -116 84 -239 225 -299 344 -33 67 -71 238 -87 397 -16 159 -15 168 19
186 58 30 183 137 239 206 l57 70 19 -28 c11 -15 49 -58 85 -94z m2629 -1421
l140 -226 -44 -11 c-33 -9 -50 -20 -64 -44 -19 -31 -20 -52 -20 -494 l0 -463
-165 0 -165 0 0 400 0 400 60 0 c51 0 64 4 91 28 49 44 42 126 -14 162 -14 9
-64 16 -142 20 l-121 5 144 233 c80 128 148 230 152 225 5 -4 71 -110 148
-235z m-2759 -448 c173 -130 320 -262 358 -323 33 -53 81 -72 127 -53 20 8 45
31 59 53 48 74 222 227 435 380 l87 63 252 -2 253 -3 27 -28 28 -27 3 -425 3
-425 -1181 0 -1181 0 3 424 3 424 24 26 c13 14 33 27 45 29 11 2 128 5 258 6
l238 1 159 -120z"/>
<path d="M4961 184 c-13 -9 -29 -32 -37 -50 -29 -68 30 -142 104 -131 112 18
110 179 -3 193 -28 4 -47 0 -64 -12z"/>
</g>
</svg>
