<?xml version="1.0" standalone="no"?>
<!DOCTYPE svg PUBLIC "-//W3C//DTD SVG 20010904//EN"
 "http://www.w3.org/TR/2001/REC-SVG-20010904/DTD/svg10.dtd">
<svg version="1.0" xmlns="http://www.w3.org/2000/svg"
 width="225.000000pt" height="225.000000pt" viewBox="0 0 225.000000 225.000000"
 preserveAspectRatio="xMidYMid meet">

<g transform="translate(0.000000,225.000000) scale(0.100000,-0.100000)"
fill="#000000" stroke="none">
<path d="M1023 2045 c-88 -45 -136 -143 -119 -247 26 -159 204 -238 343 -152
138 85 137 303 -1 388 -69 43 -152 47 -223 11z"/>
<path d="M408 1810 c-77 -23 -129 -100 -130 -191 0 -97 79 -174 179 -173 159
3 238 202 124 315 -49 50 -112 67 -173 49z"/>
<path d="M1737 1805 c-50 -17 -85 -50 -108 -100 -36 -78 -13 -168 57 -221 33
-26 45 -29 110 -29 58 0 78 4 100 21 48 35 67 70 72 129 8 101 -41 181 -126
205 -47 13 -58 12 -105 -5z"/>
<path d="M875 1516 c-28 -12 -65 -40 -84 -61 -64 -73 -65 -83 -69 -379 -2
-149 -1 -284 3 -302 7 -42 48 -81 96 -94 l39 -11 0 -65 0 -66 34 21 c18 12 50
21 71 21 33 0 46 -8 96 -58 l59 -58 36 37 c31 31 34 40 25 57 -6 11 -11 48
-11 82 0 52 4 65 26 87 25 25 26 25 174 22 142 -4 149 -3 154 16 9 32 6 422
-3 521 -14 137 -52 198 -148 234 -85 32 -105 28 -173 -35 -33 -30 -66 -55 -74
-55 -7 0 -41 25 -75 55 -72 64 -97 68 -176 31z"/>
<path d="M556 1375 c-16 -8 -44 -29 -63 -45 -18 -17 -35 -30 -37 -30 -1 0 -27
18 -56 40 -64 48 -95 50 -167 14 -41 -20 -57 -35 -75 -72 -22 -45 -23 -56 -23
-289 0 -240 0 -241 24 -267 13 -14 36 -28 52 -31 l29 -7 0 -134 0 -134 215 0
215 0 0 124 c0 69 -7 159 -15 203 -11 58 -15 150 -15 356 0 232 -2 277 -14
277 -8 0 -20 2 -28 5 -7 3 -26 -2 -42 -10z"/>
<path d="M1852 1345 c-27 -25 -53 -45 -57 -45 -4 0 -27 18 -52 40 -36 31 -54
40 -82 40 -20 0 -41 -4 -47 -8 -7 -5 -10 -106 -11 -302 0 -233 -4 -313 -17
-380 -12 -63 -15 -109 -10 -178 l7 -92 213 0 213 0 3 133 3 132 41 19 c23 10
47 29 53 43 14 31 15 434 1 484 -17 61 -52 102 -109 132 -30 15 -65 27 -77 27
-12 0 -44 -20 -72 -45z"/>
<path d="M1250 635 l0 -35 52 0 53 0 -119 -119 -120 -120 -59 65 c-64 70 -88
87 -110 79 -7 -3 -70 -66 -139 -138 l-126 -133 24 -27 23 -27 94 98 c52 53
104 108 116 122 l21 25 74 -77 c41 -43 82 -78 92 -78 9 0 78 62 153 138 l136
137 3 -57 c3 -56 4 -58 31 -58 l28 0 5 103 c3 56 1 110 -4 120 -7 15 -24 17
-118 17 l-110 0 0 -35z"/>
</g>
</svg>
