<?xml version="1.0" encoding="UTF-8" standalone="no"?>
<svg
   xmlns:dc="http://purl.org/dc/elements/1.1/"
   xmlns:cc="http://creativecommons.org/ns#"
   xmlns:rdf="http://www.w3.org/1999/02/22-rdf-syntax-ns#"
   xmlns:svg="http://www.w3.org/2000/svg"
   xmlns="http://www.w3.org/2000/svg"
   xmlns:sodipodi="http://sodipodi.sourceforge.net/DTD/sodipodi-0.dtd"
   xmlns:inkscape="http://www.inkscape.org/namespaces/inkscape"
   inkscape:export-ydpi="576"
   inkscape:export-xdpi="576"
   inkscape:export-filename="D:\Project Real\Januari 2\export\filled line\png\28 - Coconu Drink.png"
   width="64pt"
   height="64pt"
   viewBox="0 0 22.577778 22.577778"
   version="1.1"
   id="svg831"
   inkscape:version="1.0 (4035a4fb49, 2020-05-01)"
   sodipodi:docname="29 - MilkBox and Glass.svg">
  <defs
     id="defs825">
    <pattern
       id="EMFhbasepattern"
       patternUnits="userSpaceOnUse"
       width="6"
       height="6"
       x="0"
       y="0" />
    <pattern
       id="EMFhbasepattern-9"
       patternUnits="userSpaceOnUse"
       width="6"
       height="6"
       x="0"
       y="0" />
    <pattern
       id="EMFhbasepattern-0"
       patternUnits="userSpaceOnUse"
       width="6"
       height="6"
       x="0"
       y="0" />
    <pattern
       id="EMFhbasepattern-7"
       patternUnits="userSpaceOnUse"
       width="6"
       height="6"
       x="0"
       y="0" />
    <pattern
       id="EMFhbasepattern-2"
       patternUnits="userSpaceOnUse"
       width="6"
       height="6"
       x="0"
       y="0" />
    <pattern
       id="EMFhbasepattern-98"
       patternUnits="userSpaceOnUse"
       width="6"
       height="6"
       x="0"
       y="0" />
    <pattern
       id="EMFhbasepattern-6"
       patternUnits="userSpaceOnUse"
       width="6"
       height="6"
       x="0"
       y="0" />
    <pattern
       id="EMFhbasepattern-01"
       patternUnits="userSpaceOnUse"
       width="6"
       height="6"
       x="0"
       y="0" />
    <pattern
       id="EMFhbasepattern-07"
       patternUnits="userSpaceOnUse"
       width="6"
       height="6"
       x="0"
       y="0" />
    <pattern
       id="EMFhbasepattern-8"
       patternUnits="userSpaceOnUse"
       width="6"
       height="6"
       x="0"
       y="0" />
    <pattern
       id="EMFhbasepattern-4"
       patternUnits="userSpaceOnUse"
       width="6"
       height="6"
       x="0"
       y="0" />
    <pattern
       id="EMFhbasepattern-40"
       patternUnits="userSpaceOnUse"
       width="6"
       height="6"
       x="0"
       y="0" />
    <pattern
       id="EMFhbasepattern-08"
       patternUnits="userSpaceOnUse"
       width="6"
       height="6"
       x="0"
       y="0" />
    <pattern
       id="EMFhbasepattern-04"
       patternUnits="userSpaceOnUse"
       width="6"
       height="6"
       x="0"
       y="0" />
    <pattern
       id="EMFhbasepattern-014"
       patternUnits="userSpaceOnUse"
       width="6"
       height="6"
       x="0"
       y="0" />
    <pattern
       id="EMFhbasepattern-27"
       patternUnits="userSpaceOnUse"
       width="6"
       height="6"
       x="0"
       y="0" />
    <pattern
       id="EMFhbasepattern-09"
       patternUnits="userSpaceOnUse"
       width="6"
       height="6"
       x="0"
       y="0" />
    <pattern
       id="EMFhbasepattern-5"
       patternUnits="userSpaceOnUse"
       width="6"
       height="6"
       x="0"
       y="0" />
    <pattern
       id="EMFhbasepattern-018"
       patternUnits="userSpaceOnUse"
       width="6"
       height="6"
       x="0"
       y="0" />
  </defs>
  <sodipodi:namedview
     id="base"
     pagecolor="#ffffff"
     bordercolor="#666666"
     borderopacity="1.0"
     inkscape:pageopacity="0.0"
     inkscape:pageshadow="2"
     inkscape:zoom="6.2578125"
     inkscape:cx="42.666667"
     inkscape:cy="42.666667"
     inkscape:document-units="pt"
     inkscape:current-layer="layer1"
     showgrid="false"
     units="pt"
     inkscape:window-width="1366"
     inkscape:window-height="705"
     inkscape:window-x="-8"
     inkscape:window-y="-8"
     inkscape:window-maximized="1"
     inkscape:pagecheckerboard="true"
     inkscape:showpageshadow="false"
     inkscape:object-paths="true"
     inkscape:snap-intersection-paths="true"
     inkscape:snap-smooth-nodes="true"
     inkscape:snap-midpoints="true"
     showguides="true"
     inkscape:snap-bbox="true"
     inkscape:bbox-nodes="true"
     inkscape:snap-nodes="false"
     inkscape:snap-global="true"
     inkscape:document-rotation="0">
    <inkscape:grid
       type="xygrid"
       id="grid1378" />
    <sodipodi:guide
       position="0.97013831,21.607643"
       orientation="78.000048,0"
       id="guide1380"
       inkscape:locked="false" />
    <sodipodi:guide
       position="0.97013831,0.97013129"
       orientation="0,78.000005"
       id="guide1382"
       inkscape:locked="false" />
    <sodipodi:guide
       position="21.607639,0.97013129"
       orientation="-78.000048,0"
       id="guide1384"
       inkscape:locked="false" />
    <sodipodi:guide
       position="21.607639,21.607643"
       orientation="0,-78.000005"
       id="guide1386"
       inkscape:locked="false" />
  </sodipodi:namedview>
  <metadata
     id="metadata828">
    <rdf:RDF>
      <cc:Work
         rdf:about="">
        <dc:format>image/svg+xml</dc:format>
        <dc:type
           rdf:resource="http://purl.org/dc/dcmitype/StillImage" />
        <dc:title></dc:title>
      </cc:Work>
    </rdf:RDF>
  </metadata>
  <g
     inkscape:label="Icon"
     inkscape:groupmode="layer"
     id="layer1"
     transform="translate(0,-274.42223)">
    <g
       transform="matrix(1.2580454,0,0,1.2580454,-37.979779,-77.278044)"
       style="display:inline;stroke-width:0.794884"
       id="g1466">
      <g
         style="stroke-width:0.794884"
         id="g1445">
        <g
           style="stroke-width:0.794884"
           id="g1425">
          <g
             style="stroke-width:0.794884"
             id="g1916">
            <g
               style="stroke-width:0.794884"
               id="g1402">
              <path
                 id="path1235"
                 d="m 42.589844,281.91797 a 0.26460996,0.26460996 0 0 0 -0.179688,0.0781 l -2.115234,2.11719 a 0.26460996,0.26460996 0 0 0 -0.07813,0.1875 l 0.0039,3.17383 a 0.26460996,0.26460996 0 0 0 0.263672,0.26562 h 4.230469 a 0.26460996,0.26460996 0 0 0 0.263672,-0.26562 v -3.17383 a 0.26460996,0.26460996 0 0 0 -0.07617,-0.1875 l -2.117188,-2.11719 a 0.26460996,0.26460996 0 0 0 -0.195312,-0.0781 z"
                 style="color:#000000;font-style:normal;font-variant:normal;font-weight:normal;font-stretch:normal;font-size:medium;line-height:normal;font-family:sans-serif;font-variant-ligatures:normal;font-variant-position:normal;font-variant-caps:normal;font-variant-numeric:normal;font-variant-alternates:normal;font-variant-east-asian:normal;font-feature-settings:normal;font-variation-settings:normal;text-indent:0;text-align:start;text-decoration:none;text-decoration-line:none;text-decoration-style:solid;text-decoration-color:#000000;letter-spacing:normal;word-spacing:normal;text-transform:none;writing-mode:lr-tb;direction:ltr;text-orientation:mixed;dominant-baseline:auto;baseline-shift:baseline;text-anchor:start;white-space:normal;shape-padding:0;shape-margin:0;inline-size:0;clip-rule:nonzero;display:inline;overflow:visible;visibility:visible;isolation:auto;mix-blend-mode:normal;color-interpolation:sRGB;color-interpolation-filters:linearRGB;solid-color:#000000;solid-opacity:1;vector-effect:none;fill:#70c2ef;fill-opacity:1;fill-rule:nonzero;stroke:none;stroke-width:0.420626;stroke-linecap:round;stroke-linejoin:round;stroke-miterlimit:4;stroke-dasharray:none;stroke-dashoffset:0;stroke-opacity:1;color-rendering:auto;image-rendering:auto;shape-rendering:auto;text-rendering:auto;enable-background:accumulate;stop-color:#000000" />
              <path
                 id="path1173"
                 d="M 32.013672,284.03516 A 0.26460996,0.26460996 0 0 0 31.75,284.30078 v 12.16992 a 0.26460996,0.26460996 0 0 0 0.263672,0.26563 h 8.542969 a 0.26460996,0.26460996 0 0 0 0.265625,-0.26758 c -0.03418,-4.05764 -0.08659,-8.11361 -0.07617,-12.16797 a 0.26460996,0.26460996 0 0 0 -0.265625,-0.26562 z"
                 style="color:#000000;font-style:normal;font-variant:normal;font-weight:normal;font-stretch:normal;font-size:medium;line-height:normal;font-family:sans-serif;font-variant-ligatures:normal;font-variant-position:normal;font-variant-caps:normal;font-variant-numeric:normal;font-variant-alternates:normal;font-variant-east-asian:normal;font-feature-settings:normal;font-variation-settings:normal;text-indent:0;text-align:start;text-decoration:none;text-decoration-line:none;text-decoration-style:solid;text-decoration-color:#000000;letter-spacing:normal;word-spacing:normal;text-transform:none;writing-mode:lr-tb;direction:ltr;text-orientation:mixed;dominant-baseline:auto;baseline-shift:baseline;text-anchor:start;white-space:normal;shape-padding:0;shape-margin:0;inline-size:0;clip-rule:nonzero;display:inline;overflow:visible;visibility:visible;isolation:auto;mix-blend-mode:normal;color-interpolation:sRGB;color-interpolation-filters:linearRGB;solid-color:#000000;solid-opacity:1;vector-effect:none;fill:#e2f0fa;fill-opacity:1;fill-rule:nonzero;stroke:none;stroke-width:0.420626;stroke-linecap:round;stroke-linejoin:round;stroke-miterlimit:4;stroke-dasharray:none;stroke-dashoffset:0;stroke-opacity:1;color-rendering:auto;image-rendering:auto;shape-rendering:auto;text-rendering:auto;enable-background:accumulate;stop-color:#000000" />
              <path
                 transform="matrix(0.26458334,0,0,0.26458334,0,280.06666)"
                 d="m 154.28917,61.992108 -0.10351,-10.865235 c -0.004,-0.339023 -0.17852,-0.654633 -0.46485,-0.835937 l -1.47656,-0.929688 c -2.79295,-1.864592 -4.92756,-2.092997 -6.51758,-1.912109 -0.79501,0.09033 -1.44122,0.256375 -1.95703,0.318359 -0.5158,0.06198 -0.87595,0.04823 -1.30664,-0.132812 -0.47802,-0.200693 -0.55496,-0.34379 -0.63477,-0.6875 -0.0798,-0.343937 -0.0343,-0.948445 0.14844,-1.71875 0.27802,-1.023837 0.77539,-1.85244 0.77539,-3.425782 0,-2.322293 -2.0402,-4.185546 -4.3125,-4.185546 l -1.1e-4,8e-5 c -1.03452,0 -2.08884,0.313024 -2.92187,1.019531 -0.83304,0.706582 -1.38867,1.830028 -1.38867,3.166015 0,1.655282 0.35329,2.405012 0.80468,3.654297 0.007,0.0189 0.0135,0.03932 0.0215,0.05859 0.25606,0.593424 0.18824,1.136049 -0.2207,1.726563 -0.40896,0.590475 -1.20973,1.17874 -2.38477,1.5 C 130.04832,49.37137 124.55477,48.966326 120,45.925781 V 62 c -0.002,0.552262 0.44383,1.001695 0.99609,1.003906 h 32.28907 z"
                 style="color:#000000;font-style:normal;font-variant:normal;font-weight:normal;font-stretch:normal;font-size:medium;line-height:normal;font-family:sans-serif;font-variant-ligatures:normal;font-variant-position:normal;font-variant-caps:normal;font-variant-numeric:normal;font-variant-alternates:normal;font-variant-east-asian:normal;font-feature-settings:normal;font-variation-settings:normal;text-indent:0;text-align:start;text-decoration:none;text-decoration-line:none;text-decoration-style:solid;text-decoration-color:#000000;letter-spacing:normal;word-spacing:normal;text-transform:none;writing-mode:lr-tb;direction:ltr;text-orientation:mixed;dominant-baseline:auto;baseline-shift:baseline;text-anchor:start;white-space:normal;shape-padding:0;shape-margin:0;inline-size:0;clip-rule:nonzero;display:inline;overflow:visible;visibility:visible;isolation:auto;mix-blend-mode:normal;color-interpolation:sRGB;color-interpolation-filters:linearRGB;solid-color:#000000;solid-opacity:1;vector-effect:none;fill:#f9f9f9;fill-opacity:1;fill-rule:nonzero;stroke:none;stroke-width:1.58977;stroke-linecap:round;stroke-linejoin:round;stroke-miterlimit:4;stroke-dasharray:none;stroke-dashoffset:0;stroke-opacity:1;color-rendering:auto;image-rendering:auto;shape-rendering:auto;text-rendering:auto;enable-background:accumulate;stop-color:#000000"
                 id="path1137"
                 sodipodi:nodetypes="cccccscccscccscccsccccc" />
              <path
                 sodipodi:nodetypes="ccccccccc"
                 id="path1194"
                 d="m 40.516101,284.29298 2.088736,-2.11718 c 0.17133,-0.16523 0.202391,-0.25772 -0.03563,-0.2578 l -7.909048,-3e-5 c -0.05973,4.5e-4 -0.117557,0.0211 -0.164062,0.0586 l -2.646485,2.11719 c -0.193751,0.15602 -0.08469,0.46892 0.164063,0.4707 h 8.466797 z"
                 style="color:#000000;font-style:normal;font-variant:normal;font-weight:normal;font-stretch:normal;font-size:medium;line-height:normal;font-family:sans-serif;font-variant-ligatures:normal;font-variant-position:normal;font-variant-caps:normal;font-variant-numeric:normal;font-variant-alternates:normal;font-variant-east-asian:normal;font-feature-settings:normal;font-variation-settings:normal;text-indent:0;text-align:start;text-decoration:none;text-decoration-line:none;text-decoration-style:solid;text-decoration-color:#000000;letter-spacing:normal;word-spacing:normal;text-transform:none;writing-mode:lr-tb;direction:ltr;text-orientation:mixed;dominant-baseline:auto;baseline-shift:baseline;text-anchor:start;white-space:normal;shape-padding:0;shape-margin:0;inline-size:0;clip-rule:nonzero;display:inline;overflow:visible;visibility:visible;isolation:auto;mix-blend-mode:normal;color-interpolation:sRGB;color-interpolation-filters:linearRGB;solid-color:#000000;solid-opacity:1;vector-effect:none;fill:#87d1ee;fill-opacity:1;fill-rule:nonzero;stroke:none;stroke-width:0.420626;stroke-linecap:round;stroke-linejoin:round;stroke-miterlimit:4;stroke-dasharray:none;stroke-dashoffset:0;stroke-opacity:1;color-rendering:auto;image-rendering:auto;shape-rendering:auto;text-rendering:auto;enable-background:accumulate;stop-color:#000000" />
              <path
                 sodipodi:nodetypes="ccccccc"
                 transform="matrix(0.26458334,0,0,0.26458334,0,280.06666)"
                 d="m 119.99997,16.003908 v 8.554688 c 4.8022,-1.566023 11.42988,-0.708794 16.35156,0.257812 5.03259,0.988605 11.77909,2.07947 17.65821,0.376953 -0.009,-3.063768 0.0603,-10.262584 0.0603,-10.262584 L 120.99609,15 c -0.88885,0.05623 -0.90879,0.546915 -0.99612,1.003908 z"
                 style="color:#000000;font-style:normal;font-variant:normal;font-weight:normal;font-stretch:normal;font-size:medium;line-height:normal;font-family:sans-serif;font-variant-ligatures:normal;font-variant-position:normal;font-variant-caps:normal;font-variant-numeric:normal;font-variant-alternates:normal;font-variant-east-asian:normal;font-feature-settings:normal;font-variation-settings:normal;text-indent:0;text-align:start;text-decoration:none;text-decoration-line:none;text-decoration-style:solid;text-decoration-color:#000000;letter-spacing:normal;word-spacing:normal;text-transform:none;writing-mode:lr-tb;direction:ltr;text-orientation:mixed;dominant-baseline:auto;baseline-shift:baseline;text-anchor:start;white-space:normal;shape-padding:0;shape-margin:0;inline-size:0;clip-rule:nonzero;display:inline;overflow:visible;visibility:visible;isolation:auto;mix-blend-mode:normal;color-interpolation:sRGB;color-interpolation-filters:linearRGB;solid-color:#000000;solid-opacity:1;vector-effect:none;fill:#a7e3fa;fill-opacity:1;fill-rule:nonzero;stroke:none;stroke-width:1.58977;stroke-linecap:round;stroke-linejoin:round;stroke-miterlimit:4;stroke-dasharray:none;stroke-dashoffset:0;stroke-opacity:1;color-rendering:auto;image-rendering:auto;shape-rendering:auto;text-rendering:auto;enable-background:accumulate;stop-color:#000000"
                 id="path1156" />
              <path
                 id="path1373"
                 style="color:#000000;font-style:normal;font-variant:normal;font-weight:normal;font-stretch:normal;font-size:medium;line-height:normal;font-family:sans-serif;font-variant-ligatures:normal;font-variant-position:normal;font-variant-caps:normal;font-variant-numeric:normal;font-variant-alternates:normal;font-variant-east-asian:normal;font-feature-settings:normal;font-variation-settings:normal;text-indent:0;text-align:start;text-decoration:none;text-decoration-line:none;text-decoration-style:solid;text-decoration-color:#000000;letter-spacing:normal;word-spacing:normal;text-transform:none;writing-mode:lr-tb;direction:ltr;text-orientation:mixed;dominant-baseline:auto;baseline-shift:baseline;text-anchor:start;white-space:normal;shape-padding:0;shape-margin:0;inline-size:0;clip-rule:nonzero;display:inline;overflow:visible;visibility:visible;isolation:auto;mix-blend-mode:normal;color-interpolation:sRGB;color-interpolation-filters:linearRGB;solid-color:#000000;solid-opacity:1;vector-effect:none;fill:#5aabdd;fill-opacity:1;fill-rule:nonzero;stroke:none;stroke-width:0.420626;stroke-linecap:round;stroke-linejoin:round;stroke-miterlimit:4;stroke-dasharray:none;stroke-dashoffset:0;stroke-opacity:1;color-rendering:auto;image-rendering:auto;shape-rendering:auto;text-rendering:auto;enable-background:accumulate;stop-color:#000000"
                 d="m 42.533911,282.31326 -2e-5,2e-5 -0.374886,-0.37346 c -7.16e-4,7e-4 -1.375972,1.34992 -1.935494,2.00129 0.01174,0.0777 -0.0067,2.0042 -0.0043,2.81451 l 0.529167,-0.0233 c -0.0024,-0.81062 0.01721,-2.61288 0.01721,-2.61288 0.490486,-0.47219 1.768326,-1.80618 1.768326,-1.80618 z"
                 sodipodi:nodetypes="ccccccccc" />
              <path
                 sodipodi:nodetypes="cccccccccccccccc"
                 id="path1214"
                 d="m 33.90772,282.44727 h 8.689936 c 0.146174,5.6e-4 0.265112,-0.11751 0.265625,-0.26368 v -1.58789 c -5.18e-4,-0.14617 -0.119455,-0.26423 -0.265625,-0.26367 H 41.46875 c -0.07694,-7.1e-4 -0.150374,0.0321 -0.201172,0.0899 l -0.378906,0.43945 h -4.523438 l -0.408203,-0.44336 c -0.05016,-0.0548 -0.121038,-0.086 -0.195312,-0.0859 l -1.101563,-9e-5 c -0.145408,5.1e-4 -0.263156,0.11826 -0.263672,0.26367 v 1.45592 l -0.159165,0.13197 z"
                 style="color:#000000;font-style:normal;font-variant:normal;font-weight:normal;font-stretch:normal;font-size:medium;line-height:normal;font-family:sans-serif;font-variant-ligatures:normal;font-variant-position:normal;font-variant-caps:normal;font-variant-numeric:normal;font-variant-alternates:normal;font-variant-east-asian:normal;font-feature-settings:normal;font-variation-settings:normal;text-indent:0;text-align:start;text-decoration:none;text-decoration-line:none;text-decoration-style:solid;text-decoration-color:#000000;letter-spacing:normal;word-spacing:normal;text-transform:none;writing-mode:lr-tb;direction:ltr;text-orientation:mixed;dominant-baseline:auto;baseline-shift:baseline;text-anchor:start;white-space:normal;shape-padding:0;shape-margin:0;inline-size:0;clip-rule:nonzero;display:inline;overflow:visible;visibility:visible;isolation:auto;mix-blend-mode:normal;color-interpolation:sRGB;color-interpolation-filters:linearRGB;solid-color:#000000;solid-opacity:1;vector-effect:none;fill:#5f8ea2;fill-opacity:1;fill-rule:nonzero;stroke:none;stroke-width:0.420626;stroke-linecap:round;stroke-linejoin:round;stroke-miterlimit:4;stroke-dasharray:none;stroke-dashoffset:0;stroke-opacity:1;color-rendering:auto;image-rendering:auto;shape-rendering:auto;text-rendering:auto;enable-background:accumulate;stop-color:#000000" />
              <path
                 transform="matrix(0.26458334,0,0,0.26458334,0,280.06666)"
                 d="m 130.00195,7.2929688 v 0.2089843 l -0.60156,0.5 -1.24609,0.9960938 h 32.84375 c 0.55247,0.00212 1.00392,-0.4436402 1.00586,-0.9960938 V 7.2929688 Z"
                 style="fill:#3a4d5c;fill-opacity:1;stroke:none;stroke-width:1.58977;stroke-linecap:round;stroke-linejoin:round;stroke-opacity:1"
                 id="path1375" />
              <path
                 transform="matrix(0.26458334,0,0,0.26458334,0,280.06666)"
                 d="m 152.01172,25.244141 0.004,2.753906 a 1.0001006,1.0001006 0 0 0 0.9961,1.003906 H 169 a 1.0001006,1.0001006 0 0 0 0.99805,-1.003906 v -2.753906 z"
                 style="color:#000000;font-style:normal;font-variant:normal;font-weight:normal;font-stretch:normal;font-size:medium;line-height:normal;font-family:sans-serif;font-variant-ligatures:normal;font-variant-position:normal;font-variant-caps:normal;font-variant-numeric:normal;font-variant-alternates:normal;font-variant-east-asian:normal;font-feature-settings:normal;font-variation-settings:normal;text-indent:0;text-align:start;text-decoration:none;text-decoration-line:none;text-decoration-style:solid;text-decoration-color:#000000;letter-spacing:normal;word-spacing:normal;text-transform:none;writing-mode:lr-tb;direction:ltr;text-orientation:mixed;dominant-baseline:auto;baseline-shift:baseline;text-anchor:start;white-space:normal;shape-padding:0;shape-margin:0;inline-size:0;clip-rule:nonzero;display:inline;overflow:visible;visibility:visible;isolation:auto;mix-blend-mode:normal;color-interpolation:sRGB;color-interpolation-filters:linearRGB;solid-color:#000000;solid-opacity:1;vector-effect:none;fill:#5aabdd;fill-opacity:1;fill-rule:nonzero;stroke:none;stroke-width:1.58977;stroke-linecap:round;stroke-linejoin:round;stroke-miterlimit:4;stroke-dasharray:none;stroke-dashoffset:0;stroke-opacity:1;color-rendering:auto;image-rendering:auto;shape-rendering:auto;text-rendering:auto;enable-background:accumulate;stop-color:#000000"
                 id="path1357" />
              <path
                 sodipodi:nodetypes="ccsccc"
                 d="m 40.787964,293.20276 c -0.01785,-1.9717 -0.03389,-4.47775 -0.03955,-6.44865 h -0.644917 c -0.747805,0 -1.339475,0.66362 -1.252122,1.40611 l 0.536635,4.55677 z"
                 style="color:#000000;font-style:normal;font-variant:normal;font-weight:normal;font-stretch:normal;font-size:medium;line-height:normal;font-family:sans-serif;font-variant-ligatures:normal;font-variant-position:normal;font-variant-caps:normal;font-variant-numeric:normal;font-variant-alternates:normal;font-variant-east-asian:normal;font-feature-settings:normal;font-variation-settings:normal;text-indent:0;text-align:start;text-decoration:none;text-decoration-line:none;text-decoration-style:solid;text-decoration-color:#000000;letter-spacing:normal;word-spacing:normal;text-transform:none;writing-mode:lr-tb;direction:ltr;text-orientation:mixed;dominant-baseline:auto;baseline-shift:baseline;text-anchor:start;white-space:normal;shape-padding:0;shape-margin:0;inline-size:0;clip-rule:nonzero;display:inline;overflow:visible;visibility:visible;isolation:auto;mix-blend-mode:normal;color-interpolation:sRGB;color-interpolation-filters:linearRGB;solid-color:#000000;solid-opacity:1;vector-effect:none;fill:#c8dae5;fill-opacity:1;fill-rule:nonzero;stroke:none;stroke-width:0.420626;stroke-linecap:round;stroke-linejoin:round;stroke-miterlimit:4;stroke-dasharray:none;stroke-dashoffset:0;stroke-opacity:1;color-rendering:auto;image-rendering:auto;shape-rendering:auto;text-rendering:auto;enable-background:accumulate;stop-color:#000000"
                 id="path1346" />
              <path
                 sodipodi:nodetypes="cccccccccccc"
                 transform="matrix(0.26458334,0,0,0.26458334,0,280.06666)"
                 d="m 154.2832,61.382812 -0.0976,-10.255859 c -0.004,-0.339023 -0.17852,-0.654633 -0.46485,-0.835937 l -1.47656,-0.929688 c -1.2615,-0.842188 -2.3814,-1.339307 -3.38476,-1.626953 l 0.82438,7.005512 a 5.9333589,5.9333589 131.68833 0 1 -5.90182,6.626783 L 120,61.330078 V 62 c -0.002,0.552262 0.44383,1.001695 0.99609,1.003906 h 29.77344 2.51563 z"
                 style="color:#000000;font-style:normal;font-variant:normal;font-weight:normal;font-stretch:normal;font-size:medium;line-height:normal;font-family:sans-serif;font-variant-ligatures:normal;font-variant-position:normal;font-variant-caps:normal;font-variant-numeric:normal;font-variant-alternates:normal;font-variant-east-asian:normal;font-feature-settings:normal;font-variation-settings:normal;text-indent:0;text-align:start;text-decoration:none;text-decoration-line:none;text-decoration-style:solid;text-decoration-color:#000000;letter-spacing:normal;word-spacing:normal;text-transform:none;writing-mode:lr-tb;direction:ltr;text-orientation:mixed;dominant-baseline:auto;baseline-shift:baseline;text-anchor:start;white-space:normal;shape-padding:0;shape-margin:0;inline-size:0;clip-rule:nonzero;display:inline;overflow:visible;visibility:visible;isolation:auto;mix-blend-mode:normal;color-interpolation:sRGB;color-interpolation-filters:linearRGB;solid-color:#000000;solid-opacity:1;vector-effect:none;fill:#ececec;fill-opacity:1;fill-rule:nonzero;stroke:none;stroke-width:1.58977;stroke-linecap:round;stroke-linejoin:round;stroke-miterlimit:4;stroke-dasharray:none;stroke-dashoffset:0;stroke-opacity:1;color-rendering:auto;image-rendering:auto;shape-rendering:auto;text-rendering:auto;enable-background:accumulate;stop-color:#000000"
                 id="path1335" />
              <path
                 id="path1276"
                 d="m 40.103516,287.21094 c -0.475928,0 -0.852484,0.42381 -0.796875,0.89648 l 0.988281,8.39453 a 0.26460996,0.26460996 0 0 0 0.261719,0.23438 h 4.763671 a 0.26460996,0.26460996 0 0 0 0.261719,-0.23438 l 0.988281,-8.39453 c 0.05561,-0.47267 -0.320947,-0.89648 -0.796874,-0.89648 z"
                 style="color:#000000;font-style:normal;font-variant:normal;font-weight:normal;font-stretch:normal;font-size:medium;line-height:normal;font-family:sans-serif;font-variant-ligatures:normal;font-variant-position:normal;font-variant-caps:normal;font-variant-numeric:normal;font-variant-alternates:normal;font-variant-east-asian:normal;font-feature-settings:normal;font-variation-settings:normal;text-indent:0;text-align:start;text-decoration:none;text-decoration-line:none;text-decoration-style:solid;text-decoration-color:#000000;letter-spacing:normal;word-spacing:normal;text-transform:none;writing-mode:lr-tb;direction:ltr;text-orientation:mixed;dominant-baseline:auto;baseline-shift:baseline;text-anchor:start;white-space:normal;shape-padding:0;shape-margin:0;inline-size:0;clip-rule:nonzero;display:inline;overflow:visible;visibility:visible;isolation:auto;mix-blend-mode:normal;color-interpolation:sRGB;color-interpolation-filters:linearRGB;solid-color:#000000;solid-opacity:1;vector-effect:none;fill:#d0e2ee;fill-opacity:1;fill-rule:nonzero;stroke:none;stroke-width:0.420626;stroke-linecap:round;stroke-linejoin:round;stroke-miterlimit:4;stroke-dasharray:none;stroke-dashoffset:0;stroke-opacity:1;color-rendering:auto;image-rendering:auto;shape-rendering:auto;text-rendering:auto;enable-background:accumulate;stop-color:#000000" />
              <path
                 id="path1256"
                 d="m 45.025391,288.26953 a 0.26460996,0.26460996 0 0 0 -0.166016,0.0859 c -0.377469,0.41313 -0.694605,0.56948 -0.988281,0.61328 -0.293676,0.0438 -0.587578,-0.0292 -0.90625,-0.15625 -0.637345,-0.25408 -1.356581,-0.76007 -2.210938,-0.53516 a 0.26460996,0.26460996 0 0 0 -0.197265,0.26954 c 0.123341,2.31913 0.511976,4.61925 0.796875,6.89843 a 0.26460996,0.26460996 0 0 0 0.261718,0.23242 h 2.646485 a 0.26460996,0.26460996 0 0 0 0.261719,-0.23437 l 0.794921,-6.87891 a 0.26460996,0.26460996 0 0 0 -0.292968,-0.29492 z"
                 style="color:#000000;font-style:normal;font-variant:normal;font-weight:normal;font-stretch:normal;font-size:medium;line-height:normal;font-family:sans-serif;font-variant-ligatures:normal;font-variant-position:normal;font-variant-caps:normal;font-variant-numeric:normal;font-variant-alternates:normal;font-variant-east-asian:normal;font-feature-settings:normal;font-variation-settings:normal;text-indent:0;text-align:start;text-decoration:none;text-decoration-line:none;text-decoration-style:solid;text-decoration-color:#000000;letter-spacing:normal;word-spacing:normal;text-transform:none;writing-mode:lr-tb;direction:ltr;text-orientation:mixed;dominant-baseline:auto;baseline-shift:baseline;text-anchor:start;white-space:normal;shape-padding:0;shape-margin:0;inline-size:0;clip-rule:nonzero;display:inline;overflow:visible;visibility:visible;isolation:auto;mix-blend-mode:normal;color-interpolation:sRGB;color-interpolation-filters:linearRGB;solid-color:#000000;solid-opacity:1;vector-effect:none;fill:#f9f9f9;fill-opacity:1;fill-rule:nonzero;stroke:none;stroke-width:0.420626;stroke-linecap:round;stroke-linejoin:round;stroke-miterlimit:4;stroke-dasharray:none;stroke-dashoffset:0;stroke-opacity:1;color-rendering:auto;image-rendering:auto;shape-rendering:auto;text-rendering:auto;enable-background:accumulate;stop-color:#000000" />
              <path
                 d="m 41.220738,288.2212 c -0.100034,-0.002 -0.201928,0.005 -0.305925,0.0222 0.561978,0.0782 1.063072,0.38647 1.520839,0.56896 0.318672,0.12705 0.612727,0.20038 0.906404,0.15658 0.02341,-0.003 0.0481,-0.0131 0.07183,-0.0181 -0.145762,-0.029 -0.294444,-0.0768 -0.449067,-0.13849 -0.517842,-0.20644 -1.089565,-0.5793 -1.74408,-0.59118 z m 3.568262,0.34359 -0.794785,6.87917 c -0.01543,0.13292 -0.127669,0.2334 -0.261482,0.23409 H 44.2619 c 0.133813,-6.9e-4 0.24605,-0.10117 0.261482,-0.23409 l 0.794785,-6.87917 c 0.01909,-0.15659 -0.102194,-0.29499 -0.259932,-0.29662 l -4e-6,-4.7e-4 c -0.01105,-2e-5 -0.0221,6.4e-4 -0.03307,0.002 v 5.2e-4 c -0.06388,0.007 -0.122853,0.038 -0.165881,0.0858 z"
                 style="color:#000000;font-style:normal;font-variant:normal;font-weight:normal;font-stretch:normal;font-size:medium;line-height:normal;font-family:sans-serif;font-variant-ligatures:normal;font-variant-position:normal;font-variant-caps:normal;font-variant-numeric:normal;font-variant-alternates:normal;font-variant-east-asian:normal;font-feature-settings:normal;font-variation-settings:normal;text-indent:0;text-align:start;text-decoration:none;text-decoration-line:none;text-decoration-style:solid;text-decoration-color:#000000;letter-spacing:normal;word-spacing:normal;text-transform:none;writing-mode:lr-tb;direction:ltr;text-orientation:mixed;dominant-baseline:auto;baseline-shift:baseline;text-anchor:start;white-space:normal;shape-padding:0;shape-margin:0;inline-size:0;clip-rule:nonzero;display:inline;overflow:visible;visibility:visible;isolation:auto;mix-blend-mode:normal;color-interpolation:sRGB;color-interpolation-filters:linearRGB;solid-color:#000000;solid-opacity:1;vector-effect:none;fill:#ececec;fill-opacity:1;fill-rule:nonzero;stroke:none;stroke-width:0.420626;stroke-linecap:round;stroke-linejoin:round;stroke-miterlimit:4;stroke-dasharray:none;stroke-dashoffset:0;stroke-opacity:1;color-rendering:auto;image-rendering:auto;shape-rendering:auto;text-rendering:auto;enable-background:accumulate;stop-color:#000000"
                 id="path1317"
                 sodipodi:nodetypes="cccccccccccccccccccc" />
            </g>
          </g>
          <path
             sodipodi:nodetypes="cccccccccccccccccsccccccccccccccccccccccccccccccsccscccccccccccccccccccccccscccscccsscccsccscsccsccssccccssscccccccccscscsscscccscccccccsccccsscscccsccccssccccsccscccsccsccccc"
             d="m 42.863536,280.59582 c -5.29e-4,-0.14632 -0.119811,-0.26439 -0.266133,-0.26355 h -1.128615 c -0.07681,-7.8e-4 -0.150164,0.0318 -0.201019,0.0894 l -0.379307,0.43977 h -4.523237 l -0.408245,-0.44338 c -0.05019,-0.0547 -0.12107,-0.0859 -0.195336,-0.0858 h -1.101741 c -0.145314,5.8e-4 -0.262969,0.11824 -0.263552,0.26355 v 1.46038 l -2.642981,2.14122 -0.0034,12.27341 c -5.29e-4,0.14617 0.117377,0.2651 0.263549,0.26562 H 45.3202 c 0.134189,-4.5e-4 0.246788,-0.10129 0.262001,-0.23461 l 0.988053,-8.39432 c 0.05561,-0.47267 -0.320924,-0.89659 -0.796851,-0.89659 h -0.794782 v -2.9099 c 5.29e-4,-0.0701 -0.02725,-0.13764 -0.07648,-0.18758 l -2.037337,-2.0407 z m -7.937499,0.26562 h 0.720368 l 0.406177,0.44338 c 0.05055,0.054 0.121386,0.0843 0.195337,0.0837 h 4.761984 c 0.07681,7.9e-4 0.150164,-0.0318 0.20102,-0.0894 l 0.378788,-0.4377 h 0.74414 v 1.05678 h -7.407814 z m -0.172083,1.58595 h 7.265705 l -1.644859,1.58802 h -7.60729 z m 8.109582,0.37672 1.372527,1.37304 -1.372527,0.51367 z m -0.529685,0.0543 v 1.83348 l -1.36839,-0.51211 z m -5.292698,0.0982 c -0.146127,5.8e-4 -0.264123,0.11949 -0.263551,0.26561 5.29e-4,0.14532 0.118231,0.26299 0.263551,0.26355 h 0.529167 c 0.146124,5.9e-4 0.265046,-0.11742 0.265615,-0.26355 5.29e-4,-0.14693 -0.118682,-0.26619 -0.265615,-0.26561 z m -4.761984,1.58801 h 7.9375 v 1.65675 c -1.385133,0.41253 -2.702621,0.15449 -4.039029,-0.108 -0.697076,-0.13693 -1.3999,-0.27552 -2.110983,-0.30283 -0.590828,-0.0227 -1.187032,0.0343 -1.787488,0.22893 z m 8.467183,0.11679 1.587499,0.59583 v 1.93373 h -1.587499 z m 3.702615,0 v 2.52956 h -1.585431 v -1.93373 z m -10.393679,1.65933 c 0.655402,0.0266 1.324798,0.15523 2.021064,0.29197 1.290675,0.25355 2.669067,0.53328 4.140317,0.14005 v 0.43821 h -0.11317 c -0.47593,0 -0.852461,0.42392 -0.796851,0.89659 l 0.562755,4.78162 c -0.540678,-0.27069 -0.974132,-0.3067 -1.312582,-0.2682 -0.210346,0.0239 -0.381323,0.0678 -0.517797,0.0842 -0.136472,0.0164 -0.231762,0.0128 -0.345715,-0.0351 -0.126477,-0.0531 -0.146834,-0.091 -0.16795,-0.1819 -0.02111,-0.091 -0.0091,-0.25094 0.03927,-0.45475 0.07356,-0.27089 0.204639,-0.49013 0.204639,-0.90641 0,-0.61444 -0.539287,-1.10742 -1.140499,-1.10742 -0.273717,0 -0.552673,0.0823 -0.773078,0.26923 -0.220409,0.18695 -0.367419,0.48471 -0.367419,0.83819 0.01976,0.58023 0.337539,0.94706 0.1602,1.43919 -0.108204,0.15623 -0.320075,0.31188 -0.630971,0.39688 -0.602112,0.16462 -1.57054,0.0572 -2.738334,-0.72296 v -5.64203 c 0.587359,-0.21848 1.175834,-0.2818 1.776118,-0.25741 z m -0.982885,0.87023 c -0.14532,5.6e-4 -0.262985,0.11823 -0.263552,0.26355 -5.29e-4,0.14613 0.117425,0.26505 0.263552,0.26562 h 2.909898 c 0.146934,5.8e-4 0.266192,-0.11868 0.265618,-0.26562 -5.29e-4,-0.14612 -0.119491,-0.26412 -0.265618,-0.26355 z m 7.031096,0.52917 h 5.669936 c 0.168084,0 0.290941,0.13796 0.271301,0.30489 l -0.960665,8.16229 H 40.79286 l -0.960662,-8.16229 c -0.01963,-0.16693 0.103216,-0.30489 0.271301,-0.30489 z m 1.117243,0.48111 c -0.151043,-0.003 -0.306446,0.0142 -0.466638,0.0563 -0.121256,0.0317 -0.203663,0.14406 -0.197403,0.26923 0.123341,2.31913 0.51195,4.61911 0.796851,6.89829 0.01614,0.13231 0.128193,0.23195 0.261482,0.23254 h 2.646865 c 0.133813,-6.9e-4 0.246052,-0.10117 0.261483,-0.23409 l 0.794784,-6.87917 c 0.02085,-0.17001 -0.122857,-0.31473 -0.293005,-0.29507 v 5.3e-4 c -0.06388,0.007 -0.122851,0.038 -0.16588,0.0858 -0.377471,0.41313 -0.694378,0.5696 -0.988055,0.6134 -0.293677,0.0438 -0.587732,-0.0295 -0.906404,-0.15658 -0.517843,-0.20644 -1.089565,-0.5793 -1.74408,-0.59118 z m -8.148339,0.0486 c -0.14532,5.6e-4 -0.262985,0.11823 -0.263552,0.26355 -5.29e-4,0.14613 0.117425,0.26505 0.263552,0.26562 h 1.5875 c 0.147135,8.7e-4 0.266711,-0.11848 0.266134,-0.26562 -5.29e-4,-0.14632 -0.119806,-0.2644 -0.266134,-0.26355 z m 8.052737,0.58395 c 0.51022,-0.0247 1.019563,0.20206 1.644345,0.45113 0.357264,0.14242 0.751562,0.25146 1.179772,0.18759 0.257871,-0.0385 0.521179,-0.29137 0.783415,-0.47077 l -0.707451,6.12675 h -2.175576 c -0.268792,-2.10486 -0.590565,-4.20267 -0.724505,-6.2947 z m -8.052737,0.47232 c -0.146127,5.8e-4 -0.264123,0.11949 -0.263552,0.26562 2.65e-4,0.14552 0.118031,0.2635 0.263552,0.26406 h 1.5875 c 0.146529,8.5e-4 0.265851,-0.11753 0.266134,-0.26406 5.29e-4,-0.14714 -0.118999,-0.26648 -0.266134,-0.26562 z m 3.55637,1.22266 c 0.275543,0 0.611333,0.31595 0.611333,0.57826 0,0.3062 -0.09669,0.43014 -0.189134,0.77515 -7.94e-4,0.003 -0.0013,0.005 -0.0021,0.008 -0.0566,0.23848 -0.09266,0.46918 -0.03927,0.69918 0.05338,0.22999 0.228576,0.44384 0.478522,0.5488 0.216546,0.0909 0.429496,0.0944 0.6134,0.0723 0.183904,-0.0222 0.345591,-0.0651 0.513665,-0.0842 0.329004,-0.0374 0.697809,-0.018 1.331185,0.39532 l 0.313674,2.66547 h -7.980857 v -3.33984 c 1.142442,0.68158 2.149983,0.80648 2.878894,0.60719 0.408191,-0.1116 0.73089,-0.32385 0.926042,-0.60564 0.389776,-0.68008 -0.06345,-1.18498 -0.06666,-1.74202 0,-0.21855 0.07186,-0.34198 0.179832,-0.43356 0.107974,-0.0916 0.26684,-0.1447 0.431498,-0.1447 z m -3.55637,3.54139 c -0.14532,5.6e-4 -0.262985,0.11823 -0.263552,0.26355 -5.29e-4,0.14613 0.117425,0.26505 0.263552,0.26562 h 2.909898 c 0.146934,5.8e-4 0.266192,-0.11869 0.265618,-0.26562 -5.29e-4,-0.14613 -0.119491,-0.26412 -0.265618,-0.26355 z m 0,1.05833 c -0.14532,5.6e-4 -0.262985,0.11823 -0.263552,0.26355 -5.29e-4,0.14613 0.117425,0.26505 0.263552,0.26562 h 1.5875 c 0.147135,8.7e-4 0.266711,-0.11848 0.266134,-0.26562 -5.29e-4,-0.14632 -0.119806,-0.2644 -0.266134,-0.26355 z"
             style="color:#000000;font-style:normal;font-variant:normal;font-weight:normal;font-stretch:normal;font-size:medium;line-height:normal;font-family:sans-serif;font-variant-ligatures:normal;font-variant-position:normal;font-variant-caps:normal;font-variant-numeric:normal;font-variant-alternates:normal;font-variant-east-asian:normal;font-feature-settings:normal;font-variation-settings:normal;text-indent:0;text-align:start;text-decoration:none;text-decoration-line:none;text-decoration-style:solid;text-decoration-color:#000000;letter-spacing:normal;word-spacing:normal;text-transform:none;writing-mode:lr-tb;direction:ltr;text-orientation:mixed;dominant-baseline:auto;baseline-shift:baseline;text-anchor:start;white-space:normal;shape-padding:0;shape-margin:0;inline-size:0;clip-rule:nonzero;display:inline;overflow:visible;visibility:visible;isolation:auto;mix-blend-mode:normal;color-interpolation:sRGB;color-interpolation-filters:linearRGB;solid-color:#000000;solid-opacity:1;vector-effect:none;fill:#000000;fill-opacity:1;fill-rule:nonzero;stroke:none;stroke-width:0.420626;stroke-linecap:round;stroke-linejoin:round;stroke-miterlimit:4;stroke-dasharray:none;stroke-dashoffset:0;stroke-opacity:1;color-rendering:auto;image-rendering:auto;shape-rendering:auto;text-rendering:auto;enable-background:accumulate;stop-color:#000000"
             id="path1917" />
        </g>
      </g>
    </g>
  </g>
</svg>
